<!-- Generated by IcoMoon.io -->
<svg version="1.1" xmlns="http://www.w3.org/2000/svg" width="59" height="75" viewBox="0 0 59 75">
<title>close</title>
<path d="M54.325 55.329c0 1.046-0.419 2.093-1.172 2.846l-5.692 5.692c-0.753 0.753-1.8 1.172-2.846 1.172s-2.093-0.419-2.846-1.172l-12.305-12.305-12.305 12.305c-0.753 0.753-1.8 1.172-2.846 1.172s-2.093-0.419-2.846-1.172l-5.692-5.692c-0.753-0.753-1.172-1.8-1.172-2.846s0.419-2.093 1.172-2.846l12.305-12.305-12.305-12.305c-0.753-0.753-1.172-1.8-1.172-2.846s0.419-2.093 1.172-2.846l5.692-5.692c0.753-0.753 1.8-1.172 2.846-1.172s2.093 0.419 2.846 1.172l12.305 12.305 12.305-12.305c0.753-0.753 1.8-1.172 2.846-1.172s2.093 0.419 2.846 1.172l5.692 5.692c0.753 0.753 1.172 1.8 1.172 2.846s-0.419 2.093-1.172 2.846l-12.305 12.305 12.305 12.305c0.753 0.753 1.172 1.8 1.172 2.846z"></path>
</svg>
