<svg aria-hidden="true" style="position: absolute; width: 0; height: 0; overflow: hidden;" version="1.1" xmlns="http://www.w3.org/2000/svg" xmlns:xlink="http://www.w3.org/1999/xlink">
<defs>
<symbol id="icon-magnifying-glass" viewBox="0 0 75 75">
<title>magnifying-glass</title>
<path d="M24.609 0c-13.57 0-24.609 11.039-24.609 24.609s11.039 24.609 24.609 24.609c6.387 0 12.195-2.466 16.573-6.469 0.052 0.091 0.098 0.187 0.178 0.267l5.041 5.041c-0.422 0.712-0.661 1.519-0.661 2.37 0 1.252 0.487 2.428 1.373 3.314l19.887 19.887c0.884 0.884 2.060 1.371 3.312 1.371s2.428-0.487 3.314-1.373 1.373-2.063 1.373-3.314-0.487-2.428-1.373-3.314l-19.887-19.887c-1.486-1.486-3.888-1.709-5.672-0.701l-5.051-5.051c-0.080-0.080-0.173-0.127-0.267-0.178 4.003-4.378 6.469-10.186 6.469-16.573 0-13.57-11.039-24.609-24.609-24.609zM52.083 48.769l19.887 19.887c0.443 0.443 0.687 1.031 0.687 1.657s-0.244 1.214-0.687 1.657c-0.888 0.884-2.426 0.884-3.314 0l-19.887-19.887c-0.441-0.443-0.687-1.031-0.687-1.657s0.244-1.214 0.687-1.657c0.443-0.441 1.031-0.687 1.657-0.687s1.212 0.244 1.657 0.687zM24.609 46.875c-12.277 0-22.266-9.989-22.266-22.266s9.989-22.266 22.266-22.266 22.266 9.989 22.266 22.266-9.989 22.266-22.266 22.266zM24.609 7.031c-9.694 0-17.578 7.884-17.578 17.578s7.884 17.578 17.578 17.578 17.578-7.884 17.578-17.578-7.884-17.578-17.578-17.578zM24.609 39.844c-8.4 0-15.234-6.834-15.234-15.234s6.834-15.234 15.234-15.234 15.234 6.834 15.234 15.234-6.834 15.234-15.234 15.234z"></path>
</symbol>
<symbol id="icon-checkmark" viewBox="0 0 75 75">
<title>checkmark</title>
<path d="M63.281 9.375l-35.156 35.156-16.406-16.406-11.719 11.719 28.125 28.125 46.875-46.875z"></path>
</symbol>
<symbol id="icon-checkmark2" viewBox="0 0 75 75">
<title>checkmark2</title>
<path d="M29.109 67.214l-29.141-28.682 14.456-14.229 14.684 14.453 31.466-30.971 14.456 14.229-45.923 45.199zM7.904 38.532l21.205 20.871 37.987-37.389-6.521-6.418-31.466 30.971-14.684-14.453-6.521 6.419z"></path>
</symbol>
</defs>
</svg>
